<?xml version="1.0" encoding="UTF-8" standalone="no"?>
<!DOCTYPE svg PUBLIC "-//W3C//DTD SVG 1.1//EN"
 "http://www.w3.org/Graphics/SVG/1.1/DTD/svg11.dtd">
<!-- Generated by graphviz version 2.40.1 (20161225.0304)
 -->
<!-- Title: %3 Pages: 1 -->
<svg width="320pt" height="437pt"
 viewBox="0.00 0.00 320.50 436.99" xmlns="http://www.w3.org/2000/svg" xmlns:xlink="http://www.w3.org/1999/xlink">
<g id="graph0" class="graph" transform="scale(1 1) rotate(0) translate(4 432.9896)">
<title>%3</title>
<!-- 1 -->
<g id="node1" class="node">
<title>1</title>
<ellipse fill="#ffffff" stroke="#000000" cx="209" cy="-410.9896" rx="18" ry="18"/>
<text text-anchor="middle" x="209" y="-407.2896" font-family="Times,serif" font-size="14.00" fill="#000000">1</text>
</g>
<!-- 2 -->
<g id="node2" class="node">
<title>2</title>
<ellipse fill="#ffffff" stroke="#000000" cx="182" cy="-338.9896" rx="18" ry="18"/>
<text text-anchor="middle" x="182" y="-335.2896" font-family="Times,serif" font-size="14.00" fill="#000000">2</text>
</g>
<!-- 1&#45;&gt;2 -->
<g id="edge1" class="edge">
<title>1&#45;&gt;2</title>
<path fill="none" stroke="#000000" d="M202.6014,-393.9266C199.407,-385.4083 195.471,-374.9124 191.8982,-365.3848"/>
<polygon fill="#000000" stroke="#000000" points="195.1411,-364.0645 188.3527,-355.9301 188.5868,-366.5224 195.1411,-364.0645"/>
</g>
<!-- 3 -->
<g id="node3" class="node">
<title>3</title>
<ellipse fill="#ffffff" stroke="#000000" cx="236" cy="-338.9896" rx="18" ry="18"/>
<text text-anchor="middle" x="236" y="-335.2896" font-family="Times,serif" font-size="14.00" fill="#000000">3</text>
</g>
<!-- 1&#45;&gt;3 -->
<g id="edge2" class="edge">
<title>1&#45;&gt;3</title>
<path fill="none" stroke="#000000" d="M215.3986,-393.9266C218.593,-385.4083 222.529,-374.9124 226.1018,-365.3848"/>
<polygon fill="#000000" stroke="#000000" points="229.4132,-366.5224 229.6473,-355.9301 222.8589,-364.0645 229.4132,-366.5224"/>
</g>
<!-- 4 -->
<g id="node4" class="node">
<title>4</title>
<ellipse fill="#ffffff" stroke="#000000" cx="161" cy="-265.4913" rx="18" ry="18"/>
<text text-anchor="middle" x="161" y="-261.7913" font-family="Times,serif" font-size="14.00" fill="#000000">4</text>
</g>
<!-- 3&#45;&gt;4 -->
<g id="edge3" class="edge">
<title>3&#45;&gt;4</title>
<path fill="none" stroke="#000000" d="M222.936,-326.1872C211.4287,-314.9103 194.484,-298.3049 181.2256,-285.312"/>
<polygon fill="#000000" stroke="#000000" points="183.5063,-282.6465 173.9143,-278.1471 178.6068,-287.6461 183.5063,-282.6465"/>
</g>
<!-- 12 -->
<g id="node12" class="node">
<title>12</title>
<ellipse fill="#ffffff" stroke="#000000" cx="236" cy="-265.4913" rx="19.4965" ry="19.4965"/>
<text text-anchor="middle" x="236" y="-261.7913" font-family="Times,serif" font-size="14.00" fill="#000000">12</text>
</g>
<!-- 3&#45;&gt;12 -->
<g id="edge11" class="edge">
<title>3&#45;&gt;12</title>
<path fill="none" stroke="#000000" d="M236,-320.8215C236,-313.0847 236,-303.8569 236,-295.1757"/>
<polygon fill="#000000" stroke="#000000" points="239.5001,-294.9945 236,-284.9946 232.5001,-294.9946 239.5001,-294.9945"/>
</g>
<!-- 15 -->
<g id="node15" class="node">
<title>15</title>
<ellipse fill="#ffffff" stroke="#000000" cx="293" cy="-265.4913" rx="19.4965" ry="19.4965"/>
<text text-anchor="middle" x="293" y="-261.7913" font-family="Times,serif" font-size="14.00" fill="#000000">15</text>
</g>
<!-- 3&#45;&gt;15 -->
<g id="edge14" class="edge">
<title>3&#45;&gt;15</title>
<path fill="none" stroke="#000000" d="M247.2614,-324.4687C255.0937,-314.3694 265.7083,-300.6825 274.7403,-289.0362"/>
<polygon fill="#000000" stroke="#000000" points="277.6123,-291.0441 280.9749,-280.997 272.0808,-286.7543 277.6123,-291.0441"/>
</g>
<!-- 5 -->
<g id="node5" class="node">
<title>5</title>
<ellipse fill="#ffffff" stroke="#000000" cx="76" cy="-186.4948" rx="18" ry="18"/>
<text text-anchor="middle" x="76" y="-182.7948" font-family="Times,serif" font-size="14.00" fill="#000000">5</text>
</g>
<!-- 4&#45;&gt;5 -->
<g id="edge4" class="edge">
<title>4&#45;&gt;5</title>
<path fill="none" stroke="#000000" d="M147.7188,-253.1481C134.1205,-240.5103 112.7872,-220.6838 96.9184,-205.9357"/>
<polygon fill="#000000" stroke="#000000" points="98.8957,-202.9953 89.188,-198.7513 94.1303,-208.1228 98.8957,-202.9953"/>
</g>
<!-- 10 -->
<g id="node10" class="node">
<title>10</title>
<ellipse fill="#ffffff" stroke="#000000" cx="131" cy="-186.4948" rx="19.4965" ry="19.4965"/>
<text text-anchor="middle" x="131" y="-182.7948" font-family="Times,serif" font-size="14.00" fill="#000000">10</text>
</g>
<!-- 4&#45;&gt;10 -->
<g id="edge9" class="edge">
<title>4&#45;&gt;10</title>
<path fill="none" stroke="#000000" d="M154.4904,-248.3503C150.7318,-238.4529 145.9126,-225.763 141.6186,-214.4558"/>
<polygon fill="#000000" stroke="#000000" points="144.8424,-213.0861 138.0201,-204.9801 138.2984,-215.5713 144.8424,-213.0861"/>
</g>
<!-- 11 -->
<g id="node11" class="node">
<title>11</title>
<ellipse fill="#ffffff" stroke="#000000" cx="192" cy="-186.4948" rx="19.4968" ry="19.4968"/>
<ellipse fill="none" stroke="#000000" cx="192" cy="-186.4948" rx="23.4965" ry="23.4965"/>
<text text-anchor="middle" x="192" y="-182.7948" font-family="Times,serif" font-size="14.00" fill="#000000">11</text>
</g>
<!-- 4&#45;&gt;11 -->
<g id="edge10" class="edge">
<title>4&#45;&gt;11</title>
<path fill="none" stroke="#000000" d="M167.7265,-248.3503C171.2081,-239.4782 175.5703,-228.3621 179.6329,-218.0096"/>
<polygon fill="#000000" stroke="#000000" points="183.0026,-219.0036 183.3976,-208.4161 176.4864,-216.4465 183.0026,-219.0036"/>
</g>
<!-- 6 -->
<g id="node6" class="node">
<title>6</title>
<ellipse fill="#ffffff" stroke="#000000" cx="18" cy="-103.4983" rx="18" ry="18"/>
<text text-anchor="middle" x="18" y="-99.7983" font-family="Times,serif" font-size="14.00" fill="#000000">6</text>
</g>
<!-- 5&#45;&gt;6 -->
<g id="edge5" class="edge">
<title>5&#45;&gt;6</title>
<path fill="none" stroke="#000000" d="M65.6308,-171.6567C56.9421,-159.2235 44.3841,-141.2533 34.344,-126.8861"/>
<polygon fill="#000000" stroke="#000000" points="37.0721,-124.6798 28.475,-118.4878 31.3343,-128.6895 37.0721,-124.6798"/>
</g>
<!-- 7 -->
<g id="node7" class="node">
<title>7</title>
<ellipse fill="#ffffff" stroke="#000000" cx="76" cy="-103.4983" rx="18" ry="18"/>
<ellipse fill="none" stroke="#000000" cx="76" cy="-103.4983" rx="22" ry="22"/>
<text text-anchor="middle" x="76" y="-99.7983" font-family="Times,serif" font-size="14.00" fill="#000000">7</text>
</g>
<!-- 5&#45;&gt;7 -->
<g id="edge6" class="edge">
<title>5&#45;&gt;7</title>
<path fill="none" stroke="#000000" d="M76,-168.4858C76,-158.9477 76,-146.941 76,-135.8513"/>
<polygon fill="#000000" stroke="#000000" points="79.5001,-135.6103 76,-125.6104 72.5001,-135.6104 79.5001,-135.6103"/>
</g>
<!-- 8 -->
<g id="node8" class="node">
<title>8</title>
<ellipse fill="#ffffff" stroke="#000000" cx="134" cy="-103.4983" rx="18" ry="18"/>
<text text-anchor="middle" x="134" y="-99.7983" font-family="Times,serif" font-size="14.00" fill="#000000">8</text>
</g>
<!-- 5&#45;&gt;8 -->
<g id="edge7" class="edge">
<title>5&#45;&gt;8</title>
<path fill="none" stroke="#000000" d="M86.3692,-171.6567C95.0579,-159.2235 107.6159,-141.2533 117.656,-126.8861"/>
<polygon fill="#000000" stroke="#000000" points="120.6657,-128.6895 123.525,-118.4878 114.9279,-124.6798 120.6657,-128.6895"/>
</g>
<!-- 9 -->
<g id="node9" class="node">
<title>9</title>
<ellipse fill="#ffffff" stroke="#000000" cx="134" cy="-22" rx="18" ry="18"/>
<ellipse fill="none" stroke="#000000" cx="134" cy="-22" rx="22" ry="22"/>
<text text-anchor="middle" x="134" y="-18.3" font-family="Times,serif" font-size="14.00" fill="#000000">9</text>
</g>
<!-- 8&#45;&gt;9 -->
<g id="edge8" class="edge">
<title>8&#45;&gt;9</title>
<path fill="none" stroke="#000000" d="M134,-85.4112C134,-76.2667 134,-64.8897 134,-54.3072"/>
<polygon fill="#000000" stroke="#000000" points="137.5001,-54.1016 134,-44.1016 130.5001,-54.1017 137.5001,-54.1016"/>
</g>
<!-- 13 -->
<g id="node13" class="node">
<title>13</title>
<ellipse fill="#ffffff" stroke="#000000" cx="257" cy="-186.4948" rx="19.4968" ry="19.4968"/>
<ellipse fill="none" stroke="#000000" cx="257" cy="-186.4948" rx="23.4965" ry="23.4965"/>
<text text-anchor="middle" x="257" y="-182.7948" font-family="Times,serif" font-size="14.00" fill="#000000">13</text>
</g>
<!-- 12&#45;&gt;13 -->
<g id="edge12" class="edge">
<title>12&#45;&gt;13</title>
<path fill="none" stroke="#000000" d="M241.0835,-246.3685C243.2586,-238.1863 245.8607,-228.3978 248.3246,-219.1294"/>
<polygon fill="#000000" stroke="#000000" points="251.7305,-219.9406 250.9171,-209.377 244.9654,-218.1422 251.7305,-219.9406"/>
</g>
<!-- 14 -->
<g id="node14" class="node">
<title>14</title>
<ellipse fill="#ffffff" stroke="#000000" cx="257" cy="-103.4983" rx="19.4968" ry="19.4968"/>
<ellipse fill="none" stroke="#000000" cx="257" cy="-103.4983" rx="23.4965" ry="23.4965"/>
<text text-anchor="middle" x="257" y="-99.7983" font-family="Times,serif" font-size="14.00" fill="#000000">14</text>
</g>
<!-- 13&#45;&gt;14 -->
<g id="edge13" class="edge">
<title>13&#45;&gt;14</title>
<path fill="none" stroke="#000000" d="M257,-162.9333C257,-154.9606 257,-145.8941 257,-137.2864"/>
<polygon fill="#000000" stroke="#000000" points="260.5001,-137.1186 257,-127.1187 253.5001,-137.1187 260.5001,-137.1186"/>
</g>
</g>
</svg>
