<?xml version="1.0" encoding="UTF-8" standalone="no"?>
<!DOCTYPE svg PUBLIC "-//W3C//DTD SVG 1.1//EN"
 "http://www.w3.org/Graphics/SVG/1.1/DTD/svg11.dtd">
<!-- Generated by graphviz version 2.40.1 (20161225.0304)
 -->
<!-- Title: %3 Pages: 1 -->
<svg width="325pt" height="437pt"
 viewBox="0.00 0.00 325.50 436.99" xmlns="http://www.w3.org/2000/svg" xmlns:xlink="http://www.w3.org/1999/xlink">
<g id="graph0" class="graph" transform="scale(1 1) rotate(0) translate(4 432.9896)">
<title>%3</title>
<!-- 1 -->
<g id="node1" class="node">
<title>1</title>
<ellipse fill="#ffffff" stroke="transparent" cx="177" cy="-410.9896" rx="18" ry="18"/>
<text text-anchor="middle" x="177" y="-407.2896" font-family="Times,serif" font-size="14.00" fill="#fffffe">1</text>
</g>
<!-- 2 -->
<g id="node2" class="node">
<title>2</title>
<ellipse fill="#ffffff" stroke="transparent" cx="150" cy="-338.9896" rx="18" ry="18"/>
<text text-anchor="middle" x="150" y="-335.2896" font-family="Times,serif" font-size="14.00" fill="#fffffe">2</text>
</g>
<!-- 1&#45;&gt;2 -->
<g id="edge1" class="edge">
<title>1&#45;&gt;2</title>
<path fill="none" stroke="transparent" d="M170.6014,-393.9266C167.407,-385.4083 163.471,-374.9124 159.8982,-365.3848"/>
<polygon fill="transparent" stroke="transparent" points="163.1411,-364.0645 156.3527,-355.9301 156.5868,-366.5224 163.1411,-364.0645"/>
</g>
<!-- 3 -->
<g id="node3" class="node">
<title>3</title>
<ellipse fill="#ffffff" stroke="#000000" cx="204" cy="-338.9896" rx="18" ry="18"/>
<text text-anchor="middle" x="204" y="-335.2896" font-family="Times,serif" font-size="14.00" fill="#000000">3</text>
</g>
<!-- 1&#45;&gt;3 -->
<g id="edge2" class="edge">
<title>1&#45;&gt;3</title>
<path fill="none" stroke="transparent" d="M183.3986,-393.9266C186.593,-385.4083 190.529,-374.9124 194.1018,-365.3848"/>
<polygon fill="transparent" stroke="transparent" points="197.4132,-366.5224 197.6473,-355.9301 190.8589,-364.0645 197.4132,-366.5224"/>
</g>
<!-- 4 -->
<g id="node4" class="node">
<title>4</title>
<ellipse fill="#ffffff" stroke="#000000" cx="143" cy="-265.4913" rx="18" ry="18"/>
<text text-anchor="middle" x="143" y="-261.7913" font-family="Times,serif" font-size="14.00" fill="#000000">4</text>
</g>
<!-- 3&#45;&gt;4 -->
<g id="edge3" class="edge">
<title>3&#45;&gt;4</title>
<path fill="none" stroke="transparent" d="M189.7261,-327.8268C179.7364,-317.8124 166.7835,-302.7655 156.9078,-289.9641"/>
<polygon fill="transparent" stroke="transparent" points="159.7121,-287.8699 150.9244,-281.9515 154.1033,-292.0582 159.7121,-287.8699"/>
</g>
<!-- 3&#45;&gt;4 -->
<g id="edge15" class="edge">
<title>3&#45;&gt;4</title>
<path fill="none" stroke="#000000" d="M196.1822,-322.678C188.0227,-311.2989 175.4803,-296.0867 164.5066,-284.2125"/>
<polygon fill="#000000" stroke="#000000" points="167.0221,-281.7788 157.5837,-276.9654 161.9603,-286.614 167.0221,-281.7788"/>
</g>
<!-- 12 -->
<g id="node12" class="node">
<title>12</title>
<ellipse fill="#ffffff" stroke="transparent" cx="204" cy="-265.4913" rx="19.4965" ry="19.4965"/>
<text text-anchor="middle" x="204" y="-261.7913" font-family="Times,serif" font-size="14.00" fill="#fffffe">12</text>
</g>
<!-- 3&#45;&gt;12 -->
<g id="edge11" class="edge">
<title>3&#45;&gt;12</title>
<path fill="none" stroke="transparent" d="M204,-320.8215C204,-313.0847 204,-303.8569 204,-295.1757"/>
<polygon fill="transparent" stroke="transparent" points="207.5001,-294.9945 204,-284.9946 200.5001,-294.9946 207.5001,-294.9945"/>
</g>
<!-- 13 -->
<g id="node13" class="node">
<title>13</title>
<ellipse fill="#ffffff" stroke="#000000" cx="257" cy="-186.4948" rx="19.4968" ry="19.4968"/>
<ellipse fill="none" stroke="#000000" cx="257" cy="-186.4948" rx="23.4965" ry="23.4965"/>
<text text-anchor="middle" x="257" y="-182.7948" font-family="Times,serif" font-size="14.00" fill="#000000">13</text>
</g>
<!-- 3&#45;&gt;13 -->
<g id="edge20" class="edge">
<title>3&#45;&gt;13</title>
<path fill="none" stroke="#000000" d="M213.3235,-323.3663C219.3109,-312.8147 226.8941,-298.4134 232,-284.9896 240.081,-263.7439 246.3604,-238.9346 250.6047,-219.5304"/>
<polygon fill="#000000" stroke="#000000" points="254.0506,-220.1517 252.6946,-209.6441 247.202,-218.704 254.0506,-220.1517"/>
</g>
<!-- 15 -->
<g id="node15" class="node">
<title>15</title>
<ellipse fill="#ffffff" stroke="transparent" cx="298" cy="-265.4913" rx="19.4965" ry="19.4965"/>
<text text-anchor="middle" x="298" y="-261.7913" font-family="Times,serif" font-size="14.00" fill="#fffffe">15</text>
</g>
<!-- 3&#45;&gt;15 -->
<g id="edge14" class="edge">
<title>3&#45;&gt;15</title>
<path fill="none" stroke="transparent" d="M218.2766,-327.8268C233.1067,-316.2312 256.566,-297.8884 274.2046,-284.0969"/>
<polygon fill="transparent" stroke="transparent" points="276.6107,-286.6585 282.3327,-277.7416 272.299,-281.144 276.6107,-286.6585"/>
</g>
<!-- 5 -->
<g id="node5" class="node">
<title>5</title>
<ellipse fill="#ffffff" stroke="#000000" cx="76" cy="-186.4948" rx="18" ry="18"/>
<text text-anchor="middle" x="76" y="-182.7948" font-family="Times,serif" font-size="14.00" fill="#000000">5</text>
</g>
<!-- 4&#45;&gt;5 -->
<g id="edge4" class="edge">
<title>4&#45;&gt;5</title>
<path fill="none" stroke="transparent" d="M128.4999,-254.1731C117.0904,-242.9035 101.6545,-225.2477 90.3253,-210.7951"/>
<polygon fill="transparent" stroke="transparent" points="93.03,-208.5696 84.1909,-202.7283 87.4581,-212.8068 93.03,-208.5696"/>
</g>
<!-- 4&#45;&gt;5 -->
<g id="edge16" class="edge">
<title>4&#45;&gt;5</title>
<path fill="none" stroke="#000000" d="M134.7103,-249.1232C125.2789,-236.2787 110.1877,-218.3954 97.5381,-205.0257"/>
<polygon fill="#000000" stroke="#000000" points="99.9234,-202.4587 90.4337,-197.7475 94.9143,-207.3483 99.9234,-202.4587"/>
</g>
<!-- 10 -->
<g id="node10" class="node">
<title>10</title>
<ellipse fill="#ffffff" stroke="transparent" cx="131" cy="-186.4948" rx="19.4965" ry="19.4965"/>
<text text-anchor="middle" x="131" y="-182.7948" font-family="Times,serif" font-size="14.00" fill="#fffffe">10</text>
</g>
<!-- 4&#45;&gt;10 -->
<g id="edge9" class="edge">
<title>4&#45;&gt;10</title>
<path fill="none" stroke="transparent" d="M140.277,-247.5658C138.8663,-238.2793 137.1071,-226.6978 135.5009,-216.1244"/>
<polygon fill="transparent" stroke="transparent" points="138.9266,-215.3703 133.9644,-206.0094 132.006,-216.4216 138.9266,-215.3703"/>
</g>
<!-- 11 -->
<g id="node11" class="node">
<title>11</title>
<ellipse fill="#ffffff" stroke="#000000" cx="192" cy="-186.4948" rx="19.4968" ry="19.4968"/>
<ellipse fill="none" stroke="#000000" cx="192" cy="-186.4948" rx="23.4965" ry="23.4965"/>
<text text-anchor="middle" x="192" y="-182.7948" font-family="Times,serif" font-size="14.00" fill="#000000">11</text>
</g>
<!-- 4&#45;&gt;11 -->
<g id="edge10" class="edge">
<title>4&#45;&gt;11</title>
<path fill="none" stroke="transparent" d="M148.1547,-247.9595C153.567,-237.4551 161.751,-223.9114 169.6774,-212.2121"/>
<polygon fill="transparent" stroke="transparent" points="172.7656,-213.9039 175.6383,-203.7059 167.0331,-209.8866 172.7656,-213.9039"/>
</g>
<!-- 4&#45;&gt;11 -->
<g id="edge19" class="edge">
<title>4&#45;&gt;11</title>
<path fill="none" stroke="#000000" d="M155.9875,-252.7992C163.2504,-243.3458 172.0214,-230.0136 179.2125,-217.7808"/>
<polygon fill="#000000" stroke="#000000" points="182.4611,-219.1478 184.3525,-208.7231 176.373,-215.6929 182.4611,-219.1478"/>
</g>
<!-- 6 -->
<g id="node6" class="node">
<title>6</title>
<ellipse fill="#ffffff" stroke="transparent" cx="18" cy="-103.4983" rx="18" ry="18"/>
<text text-anchor="middle" x="18" y="-99.7983" font-family="Times,serif" font-size="14.00" fill="#fffffe">6</text>
</g>
<!-- 5&#45;&gt;6 -->
<g id="edge5" class="edge">
<title>5&#45;&gt;6</title>
<path fill="none" stroke="transparent" d="M65.6308,-171.6567C56.9421,-159.2235 44.3841,-141.2533 34.344,-126.8861"/>
<polygon fill="transparent" stroke="transparent" points="37.0721,-124.6798 28.475,-118.4878 31.3343,-128.6895 37.0721,-124.6798"/>
</g>
<!-- 7 -->
<g id="node7" class="node">
<title>7</title>
<ellipse fill="#ffffff" stroke="#000000" cx="76" cy="-103.4983" rx="18" ry="18"/>
<ellipse fill="none" stroke="#000000" cx="76" cy="-103.4983" rx="22" ry="22"/>
<text text-anchor="middle" x="76" y="-99.7983" font-family="Times,serif" font-size="14.00" fill="#000000">7</text>
</g>
<!-- 5&#45;&gt;7 -->
<g id="edge6" class="edge">
<title>5&#45;&gt;7</title>
<path fill="none" stroke="transparent" d="M70.4073,-169.2979C69.3356,-159.41 69.0082,-146.68 69.4252,-135.0558"/>
<polygon fill="transparent" stroke="transparent" points="72.9347,-134.9898 70.0173,-124.8046 65.9464,-134.5861 72.9347,-134.9898"/>
</g>
<!-- 5&#45;&gt;7 -->
<g id="edge17" class="edge">
<title>5&#45;&gt;7</title>
<path fill="none" stroke="#000000" d="M81.5927,-169.2979C82.6644,-159.41 82.9918,-146.68 82.5748,-135.0558"/>
<polygon fill="#000000" stroke="#000000" points="86.0536,-134.5861 81.9827,-124.8046 79.0653,-134.9898 86.0536,-134.5861"/>
</g>
<!-- 8 -->
<g id="node8" class="node">
<title>8</title>
<ellipse fill="#ffffff" stroke="transparent" cx="134" cy="-103.4983" rx="18" ry="18"/>
<text text-anchor="middle" x="134" y="-99.7983" font-family="Times,serif" font-size="14.00" fill="#fffffe">8</text>
</g>
<!-- 5&#45;&gt;8 -->
<g id="edge7" class="edge">
<title>5&#45;&gt;8</title>
<path fill="none" stroke="transparent" d="M86.3692,-171.6567C95.0579,-159.2235 107.6159,-141.2533 117.656,-126.8861"/>
<polygon fill="transparent" stroke="transparent" points="120.6657,-128.6895 123.525,-118.4878 114.9279,-124.6798 120.6657,-128.6895"/>
</g>
<!-- 9 -->
<g id="node9" class="node">
<title>9</title>
<ellipse fill="#ffffff" stroke="#000000" cx="134" cy="-22" rx="18" ry="18"/>
<ellipse fill="none" stroke="#000000" cx="134" cy="-22" rx="22" ry="22"/>
<text text-anchor="middle" x="134" y="-18.3" font-family="Times,serif" font-size="14.00" fill="#000000">9</text>
</g>
<!-- 5&#45;&gt;9 -->
<g id="edge18" class="edge">
<title>5&#45;&gt;9</title>
<path fill="none" stroke="#000000" d="M89.3819,-174.0996C93.6195,-170.3812 98.4002,-166.3916 103,-162.9965 127.4106,-144.9795 146.2511,-153.51 161,-126.9965 174.5301,-102.6741 163.4203,-71.4171 151.6219,-49.3524"/>
<polygon fill="#000000" stroke="#000000" points="154.5778,-47.4699 146.5931,-40.506 148.4923,-50.9292 154.5778,-47.4699"/>
</g>
<!-- 8&#45;&gt;9 -->
<g id="edge8" class="edge">
<title>8&#45;&gt;9</title>
<path fill="none" stroke="transparent" d="M134,-85.4112C134,-76.2667 134,-64.8897 134,-54.3072"/>
<polygon fill="transparent" stroke="transparent" points="137.5001,-54.1016 134,-44.1016 130.5001,-54.1017 137.5001,-54.1016"/>
</g>
<!-- 12&#45;&gt;13 -->
<g id="edge12" class="edge">
<title>12&#45;&gt;13</title>
<path fill="none" stroke="transparent" d="M214.9816,-249.1232C221.6502,-239.1837 230.3431,-226.2269 238.0906,-214.6792"/>
<polygon fill="transparent" stroke="transparent" points="241.1168,-216.4508 243.7818,-206.1966 235.3039,-212.5508 241.1168,-216.4508"/>
</g>
<!-- 14 -->
<g id="node14" class="node">
<title>14</title>
<ellipse fill="#ffffff" stroke="#000000" cx="257" cy="-103.4983" rx="19.4968" ry="19.4968"/>
<ellipse fill="none" stroke="#000000" cx="257" cy="-103.4983" rx="23.4965" ry="23.4965"/>
<text text-anchor="middle" x="257" y="-99.7983" font-family="Times,serif" font-size="14.00" fill="#000000">14</text>
</g>
<!-- 13&#45;&gt;14 -->
<g id="edge13" class="edge">
<title>13&#45;&gt;14</title>
<path fill="none" stroke="transparent" d="M250.8766,-163.3756C250.2689,-155.0328 250.1032,-145.4479 250.3796,-136.4278"/>
<polygon fill="transparent" stroke="transparent" points="253.8869,-136.3737 250.907,-126.2066 246.8962,-136.0129 253.8869,-136.3737"/>
</g>
<!-- 13&#45;&gt;14 -->
<g id="edge21" class="edge">
<title>13&#45;&gt;14</title>
<path fill="none" stroke="#000000" d="M263.1234,-163.3756C263.7311,-155.0328 263.8968,-145.4479 263.6204,-136.4278"/>
<polygon fill="#000000" stroke="#000000" points="267.1038,-136.0129 263.093,-126.2066 260.1131,-136.3737 267.1038,-136.0129"/>
</g>
</g>
</svg>
